<?xml version="1.0" standalone="no"?>
<!DOCTYPE svg PUBLIC "-//W3C//DTD SVG 20010904//EN"
 "http://www.w3.org/TR/2001/REC-SVG-20010904/DTD/svg10.dtd">
<svg version="1.0" xmlns="http://www.w3.org/2000/svg"
 width="358.000000pt" height="192.000000pt" viewBox="0 0 358.000000 192.000000"
 preserveAspectRatio="xMidYMid meet">
<metadata>
Created by potrace 1.16, written by Peter Selinger 2001-2019
</metadata>
<g transform="translate(0.000000,192.000000) scale(0.100000,-0.100000)"
fill="#000000" stroke="none">
<path d="M0 960 l0 -960 1790 0 1790 0 0 960 0 960 -1790 0 -1790 0 0 -960z
m1846 477 c4 -11 -90 -303 -101 -315 -7 -8 -45 10 -45 21 0 7 23 78 51 160 42
120 55 147 71 147 10 0 21 -6 24 -13z m-601 -851 c34 -14 85 -61 85 -77 0 -4
-15 -13 -34 -19 -31 -10 -37 -9 -60 15 -31 30 -55 32 -90 4 -37 -29 -37 -89 0
-118 35 -27 56 -26 92 4 26 22 33 23 61 14 30 -11 30 -11 16 -40 -40 -75 -177
-87 -237 -20 -15 17 -30 46 -34 66 -23 126 86 219 201 171z m1153 -23 l35 -26
-23 -19 c-27 -22 -39 -22 -64 -3 -48 36 -116 2 -116 -59 0 -47 33 -86 74 -86
30 0 56 15 56 32 0 4 -13 8 -30 8 -27 0 -30 3 -30 30 l0 30 70 0 70 0 0 -80 0
-80 -30 0 c-16 0 -30 4 -30 9 0 5 -17 3 -38 -6 -32 -12 -46 -13 -82 -3 -93 25
-132 112 -91 204 38 86 150 110 229 49z m-1934 -4 c55 -65 20 -146 -67 -156
l-47 -6 0 -43 0 -44 -40 0 -40 0 0 140 0 140 84 0 c82 0 85 -1 110 -31z m226
1 c0 -29 -2 -30 -43 -30 -50 0 -57 -4 -50 -31 4 -15 14 -19 44 -19 36 0 39 -2
39 -29 0 -28 -3 -30 -42 -33 -35 -2 -43 -7 -43 -23 0 -17 8 -20 48 -23 45 -3
47 -5 47 -33 l0 -29 -85 0 -85 0 0 140 0 140 85 0 85 0 0 -30z m187 -52 l48
-83 3 83 3 82 39 0 40 0 0 -140 0 -140 -47 0 -48 0 -50 88 -50 87 -3 -87 -3
-88 -34 0 -35 0 0 140 0 140 44 0 44 0 49 -82z m553 -58 l0 -140 -35 0 -35 0
0 140 0 140 35 0 35 0 0 -140z m130 30 l0 -110 40 0 c38 0 40 -2 40 -30 l0
-30 -80 0 -80 0 0 140 0 140 40 0 40 0 0 -110z m391 93 c78 -46 79 -207 0
-247 -20 -11 -57 -16 -111 -16 l-80 0 0 140 0 140 81 0 c58 0 89 -5 110 -17z
m169 -123 l0 -140 -40 0 -40 0 0 140 0 140 40 0 40 0 0 -140z m440 0 l0 -140
-40 0 -40 0 0 140 0 140 40 0 40 0 0 -140z m230 110 c0 -28 -3 -30 -35 -30
l-35 0 0 -110 0 -110 -37 0 -38 0 0 107 0 108 -32 3 c-29 3 -33 7 -33 33 l0
29 105 0 105 0 0 -30z m198 3 c21 -51 92 -246 92 -249 0 -2 -18 -4 -40 -4 -34
0 -41 4 -46 25 -6 23 -11 25 -64 25 -53 0 -58 -2 -64 -25 -5 -21 -12 -25 -46
-25 l-39 0 23 63 c13 34 36 97 52 140 l29 77 46 0 c42 0 48 -3 57 -27z m192
-83 l0 -110 40 0 c38 0 40 -2 40 -30 l0 -30 -80 0 -80 0 0 140 0 140 40 0 40
0 0 -110z"/>
</g>
</svg>
