<svg width="152" height="47" viewBox="0 0 152 47" fill="none" xmlns="http://www.w3.org/2000/svg">
<path d="M62.9087 10.2451C63.143 9.43473 63.553 8.74015 64.0802 8.10345C64.6073 7.46675 65.2516 7.00369 66.0131 6.6564C66.7746 6.30911 67.6532 6.13547 68.7075 6.13547C69.7619 6.13547 70.5819 6.30911 71.4019 6.6564C72.1634 7.00369 72.8077 7.52463 73.3349 8.10345C73.862 8.74015 74.2135 9.43473 74.5064 10.2451C74.7407 11.0554 74.9164 11.8658 74.9164 12.734C74.9164 13.6022 74.7992 14.4126 74.5064 15.2229C74.2721 16.0332 73.862 16.7278 73.3349 17.3645C72.8077 18.0012 72.1634 18.4643 71.4019 18.8116C70.6405 19.1589 69.7619 19.3325 68.7075 19.3325C67.6532 19.3325 66.8331 19.1589 66.0131 18.8116C65.2516 18.4643 64.6073 17.9433 64.0802 17.3645C63.553 16.7857 63.2015 16.0332 62.9087 15.2229C62.6744 14.4126 62.4987 13.6022 62.4987 12.734C62.4987 11.8658 62.6744 11.0554 62.9087 10.2451ZM64.4902 14.6441C64.6659 15.2808 64.9002 15.8017 65.2516 16.3227C65.6031 16.8436 66.0717 17.1909 66.6574 17.5382C67.2432 17.8276 67.8875 18.0012 68.6489 18.0012C69.4104 18.0012 70.1133 17.8276 70.6405 17.5382C71.1676 17.2488 71.6362 16.8436 72.0462 16.3227C72.3977 15.8017 72.6906 15.2808 72.8077 14.6441C72.9834 14.0074 73.042 13.3707 73.042 12.734C73.042 12.0973 72.9834 11.4606 72.8077 10.8239C72.632 10.1872 72.3977 9.66626 72.0462 9.14532C71.6948 8.62438 71.2262 8.27709 70.6405 7.9298C70.0547 7.64039 69.4104 7.46675 68.6489 7.46675C67.8875 7.46675 67.1846 7.64039 66.6574 7.9298C66.0717 8.21921 65.6617 8.62438 65.2516 9.14532C64.9002 9.66626 64.6073 10.1872 64.4902 10.8239C64.3145 11.4606 64.2559 12.0973 64.2559 12.734C64.2559 13.3707 64.3145 14.0074 64.4902 14.6441Z" fill="#231F20"/>
<path d="M82.7653 6.42487L86.8069 17.0172L90.8486 6.42487H93.1915V19.101H91.5515V8.56649H91.4929L87.5684 19.101H86.1041L82.121 8.56649H82.0624V19.101H80.4224V6.42487H82.7653Z" fill="#231F20"/>
<path d="M101.392 6.42487L108.128 16.6699H108.187V6.42487H109.827V19.101H107.952L101.275 8.97166H101.216V19.101H99.5761V6.42487H101.392Z" fill="#231F20"/>
<path d="M117.91 6.42487V19.101H116.211V6.42487H117.91Z" fill="#231F20"/>
<path d="M72.0463 27.6675V29.0566H64.9002V33.0505H71.5191V34.4397H64.9002V38.7808H72.1048V40.17H63.2601V27.6675H72.0463Z" fill="#231F20"/>
<path d="M79.5437 27.6675L86.2798 37.9125H86.3383V27.6675H87.9784V40.2857H86.1041L79.4266 30.1564H79.368V40.2857H77.7279V27.6675H79.5437Z" fill="#231F20"/>
<path d="M103.091 27.6675V29.0566H95.9445V33.0505H102.563V34.4397H95.9445V38.7808H103.149V40.17H94.2458V27.6675H103.091Z" fill="#231F20"/>
<path d="M114.805 27.6675C116.035 27.6675 116.973 27.9569 117.676 28.5357C118.378 29.1145 118.73 29.9249 118.73 30.9667C118.73 31.7192 118.554 32.4138 118.203 32.9926C117.851 33.5714 117.266 33.9766 116.504 34.1502V34.2081C116.855 34.266 117.148 34.3818 117.383 34.5554C117.617 34.7291 117.793 34.9027 117.91 35.1342C118.027 35.3658 118.144 35.5973 118.203 35.8867C118.261 36.1761 118.32 36.4655 118.378 36.7549C118.378 37.0443 118.437 37.3916 118.437 37.681C118.437 37.9704 118.496 38.3177 118.554 38.6071C118.613 38.8965 118.671 39.186 118.788 39.4754C118.906 39.7648 119.023 39.9963 119.198 40.2278H117.324C117.207 40.1121 117.148 39.9384 117.09 39.7069C117.031 39.4754 117.031 39.2438 117.031 38.9544C117.031 38.665 117.031 38.3756 116.973 38.0862C116.914 37.7968 116.914 37.4495 116.855 37.1601C116.797 36.8707 116.738 36.5813 116.68 36.2919C116.621 36.0025 116.504 35.7709 116.328 35.5394C116.153 35.3079 115.977 35.1921 115.743 35.0185C115.508 34.9027 115.157 34.8448 114.747 34.8448H110.588V40.2278H108.889V27.6675H114.805ZM115.157 33.3978C115.508 33.3399 115.801 33.2241 116.094 33.0505C116.387 32.8768 116.563 32.6453 116.738 32.3559C116.914 32.0665 116.973 31.7192 116.973 31.2562C116.973 30.6195 116.797 30.0985 116.445 29.6933C116.094 29.2882 115.508 29.1145 114.688 29.1145H110.471V33.5135H114.044C114.454 33.5135 114.805 33.4557 115.157 33.3978Z" fill="#231F20"/>
<path d="M132.319 40.17C131.558 40.4594 130.855 40.5751 130.093 40.5751C129.156 40.5751 128.277 40.4015 127.516 40.0542C126.755 39.7069 126.11 39.2438 125.583 38.665C125.056 38.0862 124.646 37.3916 124.412 36.6392C124.119 35.8867 124.002 35.0764 124.002 34.266C124.002 33.3399 124.119 32.4717 124.412 31.6613C124.646 30.851 125.056 30.0985 125.583 29.4618C126.11 28.8251 126.696 28.3621 127.457 27.9569C128.219 27.5517 129.098 27.3781 130.093 27.3781C130.796 27.3781 131.44 27.436 132.026 27.6096C132.612 27.7833 133.198 28.0148 133.666 28.3621C134.135 28.7094 134.545 29.1145 134.896 29.6355C135.248 30.1564 135.424 30.7931 135.541 31.5456H133.842C133.783 31.0825 133.608 30.6195 133.373 30.2722C133.139 29.9249 132.846 29.6355 132.553 29.4039C132.261 29.1724 131.85 28.9988 131.44 28.883C131.03 28.7672 130.562 28.7094 130.093 28.7094C129.332 28.7094 128.629 28.883 128.102 29.1724C127.575 29.4618 127.106 29.867 126.755 30.3879C126.403 30.9089 126.169 31.4877 125.993 32.1244C125.817 32.7611 125.759 33.3978 125.759 34.0924C125.759 34.7291 125.876 35.3658 126.052 36.0025C126.227 36.5813 126.52 37.1601 126.872 37.6232C127.223 38.0862 127.692 38.4335 128.219 38.7229C128.746 39.0123 129.39 39.1281 130.093 39.1281C130.738 39.1281 131.323 39.0123 131.85 38.8387C132.378 38.6071 132.788 38.3177 133.139 37.9704C133.491 37.6232 133.783 37.1601 133.959 36.6392C134.135 36.1182 134.193 35.5973 134.193 35.0185H130.093V33.6293H135.716V40.2857H134.662L134.193 38.7229C133.725 39.4175 133.081 39.8805 132.319 40.17Z" fill="#231F20"/>
<path d="M147.08 40.2857H145.381V35.1342L140.461 27.6675H142.511L146.318 33.6872L150.067 27.6675H152L147.138 35.1342V40.2857H147.08Z" fill="#231F20"/>
<path d="M26.0655 37.5653C35.9645 37.5653 43.9892 29.6354 43.9892 19.8535C43.9892 10.0715 35.9645 2.14163 26.0655 2.14163C16.1665 2.14163 8.14182 10.0715 8.14182 19.8535C8.14182 29.6354 16.1665 37.5653 26.0655 37.5653Z" fill="url(#paint0_linear)"/>
<path d="M0 19.9692V21.1847C0 35.3658 11.7148 46.9421 26.0655 46.9421C40.4162 46.9421 52.131 35.4236 52.131 21.2426V20.0271H0V19.9692ZM26.0655 44.5111C13.4721 44.5111 3.16301 34.7291 2.51869 22.4581H49.6123C48.968 34.7291 38.659 44.5111 26.0655 44.5111Z" fill="#231F20"/>
<path d="M46.1565 22.4581H5.97457L5.916 21.3005C5.85742 20.8953 5.85742 20.4323 5.85742 19.9692C5.85742 19.5062 5.85742 19.0431 5.916 18.6379C6.56031 8.21921 15.405 0 26.0655 0C36.726 0 45.5707 8.21921 46.2736 18.6958C46.3322 19.101 46.3322 19.5062 46.3322 20.0271C46.3322 20.4901 46.3322 20.9532 46.2736 21.3584L46.1565 22.4581ZM8.31754 19.9692H43.8135C43.8135 19.564 43.8135 19.1589 43.7549 18.8116C43.1692 9.60838 35.3788 2.43103 26.0655 2.43103C16.7522 2.43103 8.96185 9.60838 8.37611 18.8116C8.31754 19.2168 8.31754 19.564 8.31754 19.9692Z" fill="#231F20"/>
<defs>
<linearGradient id="paint0_linear" x1="11.271" y1="16.169" x2="36.6961" y2="22.6604" gradientUnits="userSpaceOnUse">
<stop offset="0.0712226" stop-color="#EF4136"/>
<stop offset="1" stop-color="#FBB040"/>
</linearGradient>
</defs>
</svg>
