<svg width="176" height="32" viewBox="0 0 176 32" fill="none" xmlns="http://www.w3.org/2000/svg">
<path d="M12.446 10.6029L15.0683 18.3651C15.17 18.6794 15.2778 19.0183 15.3949 19.382C15.5089 19.7456 15.6199 20.103 15.7215 20.4574C15.8232 20.8118 15.9188 21.1476 16.002 21.4619C16.0883 21.7762 16.1499 22.0474 16.193 22.2693H16.2701C16.3471 21.8348 16.4703 21.2986 16.6398 20.6638C16.8093 20.0291 17.0281 19.2895 17.2931 18.4452L18.5965 14.2236C18.6643 14.0018 18.7229 13.7645 18.7691 13.5149C18.8153 13.2622 18.84 13.065 18.84 12.9202C18.84 12.4672 18.6982 12.1406 18.4116 11.9341C18.1251 11.7307 17.6875 11.626 17.102 11.626H16.9233V10.5259H22.5254V11.626H22.1926C21.9368 11.626 21.715 11.6506 21.527 11.703C21.339 11.7554 21.1696 11.854 21.0216 12.005C20.8737 12.1529 20.7351 12.3624 20.6057 12.6243C20.4793 12.8893 20.3499 13.2375 20.2235 13.672L16.8463 24.568H14.7478L11.6263 15.3483L11.1518 13.6227L7.4417 24.5711H5.37097L1.9444 13.0218C1.84272 12.7507 1.73485 12.5226 1.62392 12.3439C1.51299 12.1652 1.38665 12.0235 1.24182 11.9156C1.097 11.8078 0.930599 11.7338 0.74263 11.6907C0.554662 11.6475 0.332796 11.626 0.0770362 11.626H0V10.5259H6.47103V11.626H6.12591C5.60515 11.626 5.21382 11.703 4.94882 11.8571C4.68381 12.0111 4.5513 12.3008 4.5513 12.726C4.5513 12.8709 4.57594 13.0465 4.62216 13.2499C4.66839 13.4532 4.7177 13.6535 4.77009 13.8508L5.9965 18.2511C6.08278 18.5654 6.17214 18.9105 6.26458 19.2864C6.35703 19.6624 6.4464 20.0352 6.52652 20.405C6.60663 20.7748 6.68058 21.123 6.75146 21.4465C6.81925 21.7701 6.87471 22.0443 6.91785 22.2662H6.99488C7.03802 22.0443 7.09657 21.7855 7.16744 21.4927C7.23832 21.1969 7.3246 20.8826 7.42321 20.5468C7.52182 20.2109 7.62659 19.8657 7.73752 19.5175C7.84846 19.1693 7.95937 18.8365 8.07031 18.5192L10.7943 10.6029H12.446Z" fill="#5B5B5B"/>
<path d="M36.2197 17.5207C36.2197 19.9858 35.6959 21.8193 34.6543 23.0211C33.6097 24.2228 32.0813 24.8237 30.0691 24.8237C29.1231 24.8237 28.2757 24.6758 27.5238 24.3769C26.7751 24.078 26.1372 23.6281 25.6134 23.0211C25.0895 22.4171 24.6889 21.656 24.4116 20.7377C24.1343 19.8225 23.9956 18.7502 23.9956 17.5207C23.9956 15.074 24.5133 13.2529 25.5486 12.0603C26.584 10.8678 28.1186 10.27 30.1462 10.27C31.0922 10.27 31.9396 10.4179 32.6914 10.7107C33.4402 11.0065 34.0781 11.4533 34.6019 12.0542C35.1258 12.6551 35.5264 13.41 35.8037 14.319C36.081 15.225 36.2197 16.2943 36.2197 17.5207ZM26.5255 17.5207C26.5255 18.4913 26.5902 19.351 26.7165 20.0906C26.8429 20.8332 27.0493 21.4526 27.3359 21.9518C27.6225 22.451 27.9922 22.8269 28.4483 23.0827C28.9043 23.3384 29.4621 23.4679 30.1184 23.4679C30.7748 23.4679 31.3294 23.3384 31.7824 23.0827C32.2354 22.8269 32.6021 22.451 32.8825 21.9518C33.1629 21.4526 33.3663 20.8332 33.4895 20.0906C33.6128 19.348 33.6744 18.4913 33.6744 17.5207C33.6744 16.55 33.6097 15.6964 33.4834 14.9631C33.354 14.2297 33.1506 13.6196 32.8702 13.1265C32.5898 12.6335 32.22 12.2668 31.7639 12.0203C31.3079 11.7738 30.7501 11.6505 30.0938 11.6505C29.4374 11.6505 28.8828 11.7738 28.4298 12.0203C27.9768 12.2668 27.6101 12.6366 27.3297 13.1265C27.0493 13.6165 26.8429 14.2297 26.7165 14.9631C26.5902 15.6964 26.5255 16.55 26.5255 17.5207Z" fill="#5B5B5B"/>
<path d="M46.0925 24.5678H38.5337V23.4677H38.6107C38.9096 23.4677 39.19 23.4461 39.4489 23.403C39.7077 23.3598 39.9357 23.2736 40.1268 23.1411C40.3178 23.0086 40.4719 22.8206 40.5859 22.571C40.703 22.3245 40.7585 21.9948 40.7585 21.5849V13.4129C40.7585 13.0277 40.6999 12.7196 40.5859 12.4854C40.4719 12.2512 40.3148 12.0694 40.1206 11.9431C39.9234 11.8167 39.6954 11.7305 39.4366 11.6873C39.1777 11.6442 38.9004 11.6226 38.6107 11.6226H38.5337V10.5225H42.5611L43.0603 13.1171H43.1898C43.3592 12.7258 43.5349 12.356 43.7136 12.0109C43.8923 11.6657 44.1111 11.3638 44.373 11.1018C44.6349 10.8399 44.9554 10.6365 45.3375 10.4886C45.7196 10.3407 46.2034 10.2637 46.7827 10.2637C47.738 10.2637 48.4467 10.4301 48.912 10.7629C49.3773 11.0957 49.6084 11.564 49.6084 12.1711C49.6084 12.4453 49.5653 12.6949 49.4728 12.926C49.3804 13.1572 49.2417 13.3544 49.0445 13.5208C48.8473 13.6872 48.5977 13.8166 48.2896 13.9059C47.9814 13.9953 47.6086 14.0415 47.1648 14.0415C47.1648 13.3174 47.0631 12.7936 46.8567 12.4762C46.6533 12.1557 46.2928 11.9955 45.7812 11.9955C45.4577 11.9955 45.168 12.0879 44.9123 12.2697C44.6565 12.4546 44.4316 12.6949 44.2405 13C44.0495 13.3051 43.8862 13.6502 43.7537 14.0415C43.6212 14.4329 43.5164 14.8366 43.4332 15.2495C43.3531 15.6624 43.2945 16.0753 43.2606 16.4821C43.2267 16.8919 43.2082 17.2617 43.2082 17.5945V21.7113C43.2082 22.0964 43.2668 22.4046 43.3808 22.6388C43.4948 22.873 43.652 23.0486 43.8492 23.1688C44.0464 23.289 44.2744 23.366 44.5333 23.4061C44.7921 23.443 45.0694 23.4646 45.3591 23.4646H46.0894V24.5678H46.0925Z" fill="#5B5B5B"/>
<path d="M56.9514 23.4434C57.2657 23.4434 57.5554 23.428 57.8204 23.391C58.0854 23.3571 58.3535 23.314 58.6246 23.2616V24.414C58.5137 24.4664 58.3689 24.5157 58.1902 24.5681C58.0114 24.6205 57.8173 24.6636 57.6078 24.7037C57.3982 24.7437 57.1795 24.7715 56.9484 24.793C56.7172 24.8146 56.5015 24.8239 56.2951 24.8239C55.6295 24.8239 55.0594 24.753 54.5818 24.6143C54.1042 24.4726 53.7128 24.2445 53.4047 23.9302C53.0965 23.6159 52.8685 23.1969 52.7206 22.6761C52.5727 22.1553 52.4957 21.5205 52.4957 20.7718V12.0235H50.502V10.9758C50.8163 10.9758 51.1645 10.9111 51.5435 10.7848C51.9225 10.6584 52.2584 10.4427 52.548 10.1438C52.8469 9.82029 53.0873 9.4351 53.2691 8.98521C53.4509 8.5384 53.6111 7.97757 53.7498 7.30273H54.9516V10.5259H58.3781V12.0235H54.9516V20.8488C54.9516 21.7455 55.1334 22.4018 55.4939 22.8178C55.8637 23.2338 56.3475 23.4434 56.9514 23.4434Z" fill="#5B5B5B"/>
<path d="M66.7476 23.4679V24.568H59.7004V23.4679H59.9037C60.2026 23.4679 60.48 23.4463 60.7419 23.4032C61.0007 23.36 61.2287 23.2738 61.4198 23.1413C61.6108 23.0088 61.7649 22.8208 61.8789 22.5712C61.993 22.3247 62.0515 21.995 62.0515 21.5851V7.54297C62.0515 7.16087 61.993 6.84964 61.8789 6.61545C61.7618 6.38126 61.6078 6.19945 61.4106 6.07311C61.2133 5.94677 60.9853 5.86357 60.7265 5.82351C60.4676 5.78653 60.1903 5.76496 59.9006 5.76496H59.6973V4.66797H64.5197V10.4241C64.5197 10.6645 64.5166 10.911 64.5074 11.1729C64.4982 11.4317 64.4858 11.6752 64.4704 11.894C64.4519 12.1497 64.4365 12.4024 64.418 12.6489H64.5444C65.3301 11.062 66.612 10.27 68.3931 10.27C69.1357 10.27 69.7921 10.3717 70.3683 10.572C70.9446 10.7723 71.4283 11.0805 71.8197 11.4934C72.211 11.9063 72.5099 12.4363 72.7164 13.0865C72.9198 13.7336 73.0245 14.507 73.0245 15.4007V21.5913C73.0245 22.0011 73.0769 22.3278 73.1786 22.5774C73.2803 22.8239 73.422 23.0149 73.6008 23.1474C73.7795 23.2799 73.9921 23.3662 74.2417 23.4093C74.4882 23.4525 74.7563 23.4741 75.046 23.4741H75.123V24.5741H70.5686V15.5332C70.5686 14.9631 70.5162 14.4547 70.4145 14.0109C70.3128 13.5672 70.1465 13.1913 69.9215 12.8862C69.6966 12.578 69.3977 12.3469 69.0341 12.1898C68.6704 12.0326 68.2206 11.9525 67.6905 11.9525C67.1451 11.9525 66.6737 12.0542 66.2762 12.2545C65.8786 12.4548 65.552 12.7414 65.2901 13.1111C65.0312 13.4809 64.8371 13.9308 64.7077 14.4547C64.5783 14.9785 64.5167 15.5609 64.5167 16.2018V21.7269C64.5167 22.112 64.5752 22.4202 64.6892 22.6544C64.8032 22.8886 64.9604 23.0642 65.1545 23.1844C65.3486 23.3046 65.5797 23.3816 65.8386 23.4217C66.0974 23.4586 66.3748 23.4802 66.6644 23.4802H66.7476V23.4679Z" fill="#5B5B5B"/>
<path d="M81.3535 24.8235C80.6972 24.8235 80.1025 24.7649 79.5694 24.6509C79.0363 24.5369 78.5833 24.3613 78.2074 24.1271C77.8315 23.8929 77.5418 23.6032 77.3384 23.2581C77.135 22.913 77.0303 22.5093 77.0303 22.0502C77.0303 21.7019 77.0888 21.4092 77.2028 21.175C77.3168 20.9408 77.4586 20.756 77.625 20.6204C77.7914 20.4848 77.9701 20.3893 78.1612 20.3338C78.3522 20.2783 78.5248 20.2506 78.6788 20.2506C78.6788 20.7097 78.7251 21.1411 78.8206 21.5417C78.9161 21.9423 79.0733 22.2936 79.2951 22.5956C79.517 22.8976 79.8097 23.1379 80.1703 23.3105C80.5308 23.483 80.9776 23.5724 81.5076 23.5724C81.976 23.5724 82.3889 23.5138 82.7494 23.3998C83.1069 23.2858 83.4089 23.1225 83.6523 22.913C83.8957 22.7034 84.0806 22.4538 84.21 22.158C84.3395 21.8622 84.4011 21.5417 84.4011 21.1935C84.4011 20.87 84.3518 20.5895 84.2532 20.3554C84.1546 20.1212 83.9851 19.9024 83.7417 19.6959C83.4982 19.4895 83.1685 19.283 82.7494 19.0704C82.3304 18.8578 81.8065 18.6143 81.1748 18.3401C80.5 18.0412 79.9145 17.7546 79.4153 17.4773C78.9161 17.2 78.5063 16.9011 78.1827 16.5744C77.8592 16.2509 77.6157 15.8811 77.4524 15.4682C77.2891 15.0553 77.209 14.5622 77.209 13.9922C77.209 13.3944 77.3261 12.8674 77.5603 12.4052C77.7945 11.9461 78.1303 11.5578 78.5648 11.2466C78.9993 10.9354 79.5201 10.6981 80.124 10.5379C80.728 10.3745 81.4028 10.2944 82.1455 10.2944C82.7679 10.2944 83.3164 10.3591 83.7941 10.4855C84.2717 10.6118 84.6723 10.7844 84.9958 11.0032C85.3194 11.2219 85.5628 11.4777 85.7261 11.7704C85.8894 12.0632 85.9696 12.3744 85.9696 12.698C85.9696 13.1756 85.8062 13.5577 85.4765 13.8412C85.1468 14.1278 84.6815 14.2695 84.0775 14.2695C84.0775 13.3913 83.8957 12.7103 83.5352 12.2234C83.1716 11.7366 82.6046 11.4931 81.8281 11.4931C81.3844 11.4931 81.0053 11.5455 80.691 11.6472C80.3767 11.7489 80.1179 11.8937 79.9176 12.0817C79.7173 12.2696 79.5694 12.4915 79.4769 12.7473C79.3845 13.003 79.3352 13.2834 79.3352 13.5916C79.3352 13.9244 79.3937 14.211 79.5139 14.4544C79.6341 14.6978 79.8221 14.9197 80.084 15.1261C80.3459 15.3326 80.6818 15.5298 81.0947 15.7209C81.5076 15.9119 82.0037 16.1276 82.5861 16.368C83.2764 16.6576 83.868 16.9442 84.3641 17.2246C84.8602 17.505 85.267 17.8132 85.5844 18.146C85.9018 18.4788 86.139 18.8547 86.2931 19.2707C86.4472 19.6898 86.5242 20.1705 86.5242 20.7159C86.5242 21.3969 86.401 21.9947 86.1544 22.5062C85.9079 23.0177 85.5566 23.4461 85.1067 23.7912C84.6538 24.1363 84.1114 24.3951 83.4767 24.5646C82.8357 24.7372 82.1301 24.8235 81.3535 24.8235Z" fill="#5B5B5B"/>
<path d="M88.6195 23.4679C88.9092 23.4679 89.1834 23.4494 89.4454 23.4093C89.7042 23.3693 89.9322 23.2922 90.1295 23.1721C90.3267 23.0519 90.4807 22.8763 90.5978 22.6421C90.7149 22.4079 90.7704 22.0997 90.7704 21.7145V13.4131C90.7704 13.0279 90.7118 12.7198 90.5978 12.4856C90.4838 12.2514 90.3267 12.0696 90.1295 11.9433C89.9322 11.8169 89.7042 11.7307 89.4454 11.6875C89.1865 11.6444 88.9092 11.6228 88.6195 11.6228H88.5425V10.5227H93.2232V21.5851C93.2232 21.995 93.2818 22.3216 93.3958 22.5712C93.5098 22.8177 93.6639 23.0088 93.8549 23.1413C94.046 23.2738 94.274 23.36 94.539 23.4032C94.804 23.4463 95.0813 23.4679 95.371 23.4679H95.7161V24.568H88.2744V23.4679H88.6195ZM90.3945 6.27956C90.3945 5.97142 90.4345 5.71566 90.5115 5.51228C90.5886 5.30891 90.6933 5.14251 90.832 5.01309C90.9676 4.88367 91.1278 4.79431 91.3066 4.745C91.4853 4.69262 91.6825 4.66797 91.8951 4.66797C92.0985 4.66797 92.2926 4.69262 92.4713 4.745C92.6501 4.79739 92.8072 4.88675 92.9397 5.01309C93.0722 5.13943 93.177 5.30583 93.2602 5.51228C93.3403 5.71566 93.3804 5.97142 93.3804 6.27956C93.3804 6.58771 93.3403 6.84346 93.2602 7.04684C93.1801 7.25021 93.0722 7.41663 92.9397 7.54605C92.8072 7.67547 92.6501 7.76482 92.4713 7.82029C92.2926 7.87575 92.1016 7.90349 91.8951 7.90349C91.6825 7.90349 91.4853 7.87575 91.3066 7.82029C91.1278 7.76482 90.9707 7.67239 90.832 7.54605C90.6964 7.41971 90.5886 7.2533 90.5115 7.04684C90.4345 6.84346 90.3945 6.58771 90.3945 6.27956Z" fill="#5B5B5B"/>
<path d="M109.823 11.0741C109.823 11.2621 109.795 11.4377 109.74 11.6041C109.684 11.7705 109.601 11.9153 109.49 12.0386C109.379 12.1618 109.238 12.2605 109.062 12.3344C108.886 12.4084 108.68 12.4423 108.443 12.4423C108.443 12.3406 108.43 12.2389 108.406 12.1341C108.381 12.0293 108.335 11.9369 108.27 11.8475C108.205 11.7582 108.119 11.6842 108.008 11.6288C107.897 11.5733 107.752 11.5456 107.574 11.5456C107.352 11.5456 107.152 11.5702 106.973 11.6226C106.794 11.675 106.618 11.7551 106.449 11.866C106.748 12.2327 106.991 12.6641 107.185 13.1633C107.376 13.6625 107.472 14.2881 107.472 15.0368C107.472 15.6839 107.373 16.2848 107.179 16.8333C106.982 17.3818 106.692 17.8594 106.304 18.26C105.916 18.6606 105.426 18.9749 104.834 19.1999C104.243 19.4248 103.549 19.5388 102.757 19.5388C102.656 19.5388 102.539 19.5358 102.412 19.5327C102.286 19.5296 102.156 19.5234 102.03 19.5204C101.901 19.5173 101.784 19.508 101.673 19.4957C101.562 19.4834 101.472 19.471 101.405 19.4649C101.235 19.5512 101.072 19.6436 100.918 19.7453C100.764 19.847 100.631 19.9641 100.514 20.0904C100.4 20.2198 100.308 20.3647 100.24 20.5249C100.172 20.6882 100.138 20.8669 100.138 21.0611C100.138 21.2737 100.178 21.4462 100.258 21.5726C100.338 21.6989 100.452 21.8006 100.597 21.8746C100.742 21.9485 100.915 21.9947 101.115 22.0163C101.315 22.0379 101.531 22.0471 101.762 22.0471H104.729C105.512 22.0471 106.178 22.1457 106.723 22.3399C107.269 22.5371 107.715 22.8052 108.061 23.1534C108.406 23.4985 108.658 23.9114 108.815 24.3952C108.973 24.8759 109.053 25.3997 109.053 25.9606C109.053 26.7094 108.914 27.3873 108.637 27.9943C108.359 28.5983 107.934 29.1129 107.364 29.5351C106.794 29.9572 106.07 30.2838 105.195 30.5119C104.32 30.743 103.29 30.857 102.107 30.857C100.283 30.857 98.9179 30.5211 98.015 29.8463C97.1121 29.1715 96.6592 28.2347 96.6592 27.0329C96.6592 26.5214 96.7485 26.0746 96.9273 25.6894C97.106 25.3042 97.3463 24.9776 97.6483 24.7033C97.9503 24.4291 98.2985 24.2103 98.6898 24.0377C99.0812 23.8683 99.4941 23.7419 99.9317 23.668C99.753 23.5909 99.5773 23.4892 99.4078 23.3598C99.2383 23.2304 99.0843 23.0794 98.9487 22.9007C98.8131 22.722 98.7022 22.5155 98.6159 22.2875C98.5296 22.0564 98.4865 21.8006 98.4865 21.5202C98.4865 20.9994 98.622 20.5496 98.8963 20.1705C99.1675 19.7915 99.605 19.4217 100.2 19.0643C99.8238 18.9102 99.491 18.7007 99.1952 18.4326C98.8994 18.1645 98.6529 17.8564 98.4526 17.5112C98.2523 17.1661 98.0982 16.7902 97.9934 16.3804C97.8856 15.9705 97.8332 15.5484 97.8332 15.1139C97.8332 14.3558 97.9349 13.6779 98.1414 13.0801C98.3447 12.4823 98.6529 11.977 99.0627 11.5579C99.4725 11.1388 99.9841 10.8214 100.597 10.5996C101.21 10.3777 101.932 10.2667 102.757 10.2667C103.072 10.2667 103.383 10.2914 103.691 10.3376C103.999 10.3839 104.283 10.4486 104.542 10.5287C104.8 10.6088 105.035 10.7012 105.244 10.8029C105.454 10.9046 105.62 11.0125 105.749 11.1234C105.879 10.9878 106.027 10.8368 106.196 10.6704C106.366 10.504 106.56 10.35 106.772 10.2113C106.985 10.0695 107.219 9.95244 107.469 9.86C107.722 9.76755 107.99 9.71826 108.282 9.71826C108.547 9.71826 108.775 9.75523 108.966 9.8261C109.158 9.90006 109.318 9.99559 109.447 10.1188C109.574 10.2421 109.672 10.3869 109.734 10.5533C109.789 10.7228 109.823 10.8954 109.823 11.0741ZM98.773 26.8696C98.773 27.2548 98.8254 27.6122 98.9271 27.945C99.0288 28.2778 99.2075 28.5644 99.4633 28.8017C99.7191 29.0389 100.064 29.2269 100.499 29.3656C100.933 29.5012 101.485 29.569 102.147 29.569C103.084 29.569 103.857 29.4888 104.468 29.3317C105.078 29.1745 105.561 28.9558 105.919 28.6723C106.276 28.3918 106.529 28.056 106.674 27.6677C106.819 27.2794 106.893 26.8573 106.893 26.3951C106.893 25.9945 106.834 25.6647 106.72 25.4028C106.606 25.144 106.434 24.9375 106.209 24.7896C105.984 24.6417 105.703 24.537 105.37 24.4753C105.038 24.4168 104.656 24.386 104.221 24.386H101.651C101.284 24.386 100.93 24.4168 100.582 24.4815C100.237 24.5462 99.9286 24.6664 99.6605 24.8451C99.3924 25.0238 99.1767 25.2765 99.0134 25.6C98.8532 25.9267 98.773 26.3488 98.773 26.8696ZM100.295 15.0399C100.295 16.1585 100.48 16.9751 100.853 17.4958C101.223 18.0166 101.83 18.2754 102.674 18.2754C103.099 18.2754 103.46 18.2107 103.756 18.0844C104.052 17.958 104.292 17.7608 104.48 17.4958C104.668 17.2308 104.8 16.8919 104.884 16.479C104.967 16.066 105.004 15.573 105.004 15.0029C105.004 13.8258 104.825 12.9569 104.468 12.393C104.11 11.8291 103.503 11.5486 102.653 11.5486C101.808 11.5486 101.204 11.8352 100.844 12.4114C100.477 12.9877 100.295 13.8628 100.295 15.0399Z" fill="#5B5B5B"/>
<path d="M117.662 23.4679V24.568H110.615V23.4679H110.818C111.117 23.4679 111.397 23.4463 111.656 23.4032C111.915 23.36 112.143 23.2738 112.334 23.1413C112.525 23.0088 112.679 22.8208 112.793 22.5712C112.907 22.3247 112.966 21.995 112.966 21.5851V7.54297C112.966 7.16087 112.907 6.84964 112.793 6.61545C112.679 6.38126 112.522 6.19945 112.328 6.07311C112.131 5.94369 111.903 5.86357 111.644 5.82351C111.385 5.78653 111.108 5.76496 110.818 5.76496H110.615V4.66797H115.437V10.4241C115.437 10.6645 115.434 10.911 115.425 11.1729C115.416 11.4317 115.403 11.6752 115.388 11.894C115.369 12.1497 115.354 12.4024 115.336 12.6489H115.465C116.248 11.062 117.533 10.27 119.314 10.27C120.056 10.27 120.713 10.3717 121.289 10.572C121.865 10.7723 122.349 11.0805 122.74 11.4934C123.132 11.9063 123.43 12.4363 123.637 13.0865C123.84 13.7336 123.945 14.507 123.945 15.4007V21.5913C123.945 22.0011 123.997 22.3278 124.099 22.5774C124.201 22.8239 124.343 23.0149 124.521 23.1474C124.7 23.2799 124.913 23.3662 125.162 23.4093C125.409 23.4525 125.677 23.4741 125.967 23.4741H126.044V24.5741H121.489V15.5332C121.489 14.9631 121.437 14.4547 121.335 14.0109C121.233 13.5672 121.067 13.1913 120.842 12.8862C120.617 12.5811 120.318 12.3469 119.955 12.1898C119.588 12.0326 119.141 11.9525 118.611 11.9525C118.066 11.9525 117.594 12.0542 117.197 12.2545C116.799 12.4548 116.473 12.7414 116.211 13.1111C115.952 13.4809 115.758 13.9308 115.628 14.4547C115.502 14.9785 115.437 15.5609 115.437 16.2018V21.7269C115.437 22.112 115.496 22.4202 115.61 22.6544C115.724 22.8886 115.881 23.0642 116.075 23.1844C116.272 23.3046 116.5 23.3816 116.759 23.4217C117.018 23.4586 117.295 23.4802 117.585 23.4802H117.662V23.4679Z" fill="#5B5B5B"/>
<path d="M133.713 23.4434C134.027 23.4434 134.317 23.428 134.582 23.391C134.847 23.3571 135.115 23.314 135.386 23.2616V24.414C135.275 24.4664 135.131 24.5157 134.952 24.5681C134.773 24.6205 134.579 24.6636 134.37 24.7037C134.16 24.7437 133.941 24.7715 133.71 24.793C133.479 24.8146 133.263 24.8239 133.057 24.8239C132.391 24.8239 131.821 24.753 131.344 24.6143C130.866 24.4726 130.475 24.2445 130.166 23.9302C129.858 23.6159 129.63 23.1969 129.482 22.6761C129.334 22.1553 129.257 21.5205 129.257 20.7718V12.0235H127.264V10.9758C127.578 10.9758 127.926 10.9111 128.305 10.7848C128.684 10.6584 129.02 10.4427 129.31 10.1438C129.609 9.82029 129.849 9.4351 130.031 8.98521C130.213 8.5384 130.373 7.97757 130.512 7.30273H131.713V10.5259H135.14V12.0235H131.713V20.8488C131.713 21.7455 131.895 22.4018 132.256 22.8178C132.622 23.2338 133.106 23.4434 133.713 23.4434Z" fill="#5B5B5B"/>
<path d="M150.64 14.1931C154.559 14.1931 157.736 11.0159 157.736 7.09658C157.736 3.17725 154.559 0 150.64 0C146.72 0 143.543 3.17725 143.543 7.09658C143.543 11.0159 146.72 14.1931 150.64 14.1931Z" fill="#DAFFF5"/>
<path d="M168.888 31.9021C172.807 31.9021 175.985 28.7249 175.985 24.8056C175.985 20.8862 172.807 17.709 168.888 17.709C164.969 17.709 161.792 20.8862 161.792 24.8056C161.792 28.7249 164.969 31.9021 168.888 31.9021Z" fill="#FFF2BB"/>
<path d="M156.278 30.9684H145.185C144.335 30.9684 143.645 30.2781 143.645 29.4276V20.1833C143.645 19.3328 144.335 18.6426 145.185 18.6426H156.278C157.129 18.6426 157.819 19.3328 157.819 20.1833V29.4276C157.819 30.2781 157.129 30.9684 156.278 30.9684Z" fill="#ECF3FF"/>
<path d="M174.459 13.2594H163.366C162.515 13.2594 161.825 12.5691 161.825 11.7187V2.47432C161.825 1.62384 162.515 0.933594 163.366 0.933594H174.459C175.31 0.933594 176 1.62384 176 2.47432V11.7187C176 12.5691 175.31 13.2594 174.459 13.2594Z" fill="#FFE0D9"/>
</svg>
